<svg xmlns="http://www.w3.org/2000/svg" version="1.1" xmlns:xlink="http://www.w3.org/1999/xlink" width="512" height="512"><svg xmlns="http://www.w3.org/2000/svg" version="1.1" xmlns:xlink="http://www.w3.org/1999/xlink" width="512" height="512"><svg width="512" height="512" viewBox="0 0 512 512" version="1.1" id="svg1" inkscape:version="1.4.2 (f4327f4, 2025-05-13)" sodipodi:docname="drawing.svg" inkscape:export-filename="drawing.svg" inkscape:export-xdpi="50" inkscape:export-ydpi="50" xmlns:inkscape="http://www.inkscape.org/namespaces/inkscape" xmlns:sodipodi="http://sodipodi.sourceforge.net/DTD/sodipodi-0.dtd" xmlns:xlink="http://www.w3.org/1999/xlink" xmlns="http://www.w3.org/2000/svg" xmlns:svg="http://www.w3.org/2000/svg">
  <sodipodi:namedview id="namedview1" pagecolor="#ffffff" bordercolor="#000000" borderopacity="0.25" inkscape:showpageshadow="2" inkscape:pageopacity="0.0" inkscape:pagecheckerboard="0" inkscape:deskcolor="#d1d1d1" inkscape:document-units="px" inkscape:zoom="1.04" inkscape:cx="510.09615" inkscape:cy="233.17308" inkscape:window-width="1920" inkscape:window-height="1000" inkscape:window-x="-11" inkscape:window-y="-11" inkscape:window-maximized="1" inkscape:current-layer="layer1" showguides="true"></sodipodi:namedview>
  <defs id="defs1">
    <linearGradient id="linear-gradient-2" x1="894.51001" y1="352.29001" x2="1075.97" y2="533.75" xlink:href="#linear-gradient" gradientTransform="matrix(0.96323804,0,0,1.1273222,-504.44402,-219.81679)"></linearGradient>
    <linearGradient id="linear-gradient" x1="188.67999" y1="-188.67999" x2="993.53998" y2="616.17999" gradientUnits="userSpaceOnUse">
      <stop offset=".08" stop-color="#47c1bf" id="stop1"></stop>
      <stop offset=".3" stop-color="#44bdbd" id="stop2"></stop>
      <stop offset=".48" stop-color="#3eb3b8" id="stop3"></stop>
      <stop offset=".64" stop-color="#32a3b0" id="stop4"></stop>
      <stop offset=".79" stop-color="#238ba5" id="stop5"></stop>
      <stop offset=".93" stop-color="#0e6d96" id="stop6"></stop>
      <stop offset="1" stop-color="#035c8e" id="stop7"></stop>
    </linearGradient>
    <linearGradient id="linear-gradient-3" x1="563.97998" y1="351.13" x2="737.87" y2="525.01001" xlink:href="#linear-gradient" gradientTransform="matrix(0.96323804,0,0,1.1273222,-504.44402,-219.81679)"></linearGradient>
    <linearGradient id="linear-gradient-4" x1="733.76001" y1="351.88" x2="907.65002" y2="525.77002" xlink:href="#linear-gradient" gradientTransform="matrix(0.96323804,0,0,1.1273222,-504.44402,-219.81679)"></linearGradient>
    <linearGradient inkscape:collect="always" xlink:href="#linear-gradient" id="linearGradient1" gradientTransform="matrix(0.96323804,0,0,1.1273222,-504.44402,-219.81679)" x1="894.51001" y1="352.29001" x2="1075.97" y2="533.75"></linearGradient>
    <linearGradient inkscape:collect="always" xlink:href="#linear-gradient" id="linearGradient2" gradientTransform="matrix(0.96323804,0,0,1.1273222,-504.44402,-219.81679)" x1="563.97998" y1="351.13" x2="737.87" y2="525.01001"></linearGradient>
    <linearGradient inkscape:collect="always" xlink:href="#linear-gradient" id="linearGradient3" gradientTransform="matrix(0.96323804,0,0,1.1273222,-504.44402,-219.81679)" x1="733.76001" y1="351.88" x2="907.65002" y2="525.77002"></linearGradient>
  </defs>
  <g inkscape:label="Layer 1" inkscape:groupmode="layer" id="layer1">
    <path d="m 333.86531,386.08669 c 6.46104,-13.08051 12.39964,-25.49769 18.79721,-37.61319 0.86401,-1.62856 4.04973,-2.40291 6.16438,-2.41288 22.1445,-0.11282 44.28009,0.0126 66.4252,0.0823 5.69617,0.0213 11.39219,0.14866 17.07904,0.0921 16.83586,-0.16918 29.56858,-13.98543 29.6584,-32.11351 0.092,-18.15802 -12.48997,-32.20368 -29.35282,-32.40491 -14.86503,-0.16938 -29.73898,0.3232 -44.59553,-0.0299 -20.62419,-0.49281 -38.64776,-8.04361 -52.64888,-25.74915 -28.53396,-36.08472 -17.43869,-93.96737 21.73096,-114.01552 8.96241,-4.58478 18.28414,-7.1687 27.9576,-7.25946 30.9995,-0.27177 61.99804,-0.0716 92.99751,-0.0428 0.78267,0 1.56583,0.1201 3.3926,0.26149 -2.40307,4.83607 -4.52625,9.19976 -6.72217,13.51278 -2.73504,5.36888 -5.82165,10.53682 -8.2515,16.06681 -3.50909,7.99335 -9.31322,11.13026 -16.87132,11.12004 -21.03831,-0.0126 -42.07659,-0.19034 -63.10577,-0.0511 -23.17947,0.14945 -37.06392,25.05531 -26.58046,47.98926 5.29109,11.57244 14.71175,16.82087 26.05003,17.12242 14.70331,0.39093 29.42449,-0.15853 44.12779,0.22031 24.34902,0.64364 44.73019,10.26557 58.31775,34.00373 18.97773,33.1691 8.67477,79.81081 -21.60457,100.09045 -11.39221,7.63126 -23.50378,10.95909 -36.52416,11.03949 -32.89792,0.21048 -65.79585,0.34379 -98.68456,0.47252 -2.31255,0 -4.62507,-0.22034 -7.73843,-0.39092 z" fill="url(#linear-gradient-2)" id="path15" style="display:inline;fill:url(#linearGradient1);stroke-width:0.26325"></path>
    <path d="m 181.6049,156.25583 c -6.37981,8.89806 -12.56167,17.36386 -18.56353,25.99026 -2.0696,2.97624 -3.96823,1.77971 -6.16384,0.55294 -11.63483,-6.50507 -23.93547,-9.98397 -36.98304,-9.91326 -39.583554,0.21089 -72.067513,33.80223 -75.405821,77.92073 -2.582543,34.06369 7.585567,62.10512 32.834848,81.83153 21.011045,16.41864 44.424623,18.9725 68.846043,10.77834 2.2676,-0.7642 4.67911,-1.30714 6.69477,-2.59409 4.12123,-2.62407 6.43378,-1.13607 8.75529,3.09672 3.69834,6.75643 8.06254,13.05056 11.82385,19.76691 0.65684,1.17612 0.2968,4.44381 -0.55792,5.05714 -4.66113,3.32816 -9.34927,7.03796 -14.52329,8.95832 -34.1936,12.66843 -67.946221,11.94456 -99.125356,-9.51123 C 20.643149,341.6367 2.4575532,302.01269 5.3099777,251.289 7.6766031,209.11128 24.989352,175.56 57.185264,153.72212 c 38.701714,-26.25185 78.906186,-27.01599 118.903696,-2.19168 1.8716,1.16622 3.44637,2.92565 5.51594,4.71513 z" fill="url(#linear-gradient-3)" id="path16" style="display:inline;fill:url(#linearGradient2);stroke-width:0.26325"></path>
    <path d="m 334.37842,157.0098 c -6.37968,8.89814 -12.56154,17.36386 -18.56362,25.99027 -2.06976,2.97627 -3.96813,1.77973 -6.16423,0.55301 -11.6343,-6.50514 -23.93548,-9.98361 -36.98252,-9.91329 -39.58356,0.21089 -72.06772,33.80225 -75.40605,77.92069 -2.58257,34.06373 7.58554,62.10511 32.8347,81.83179 21.01083,16.41849 44.4249,18.97245 68.84583,10.7781 2.26767,-0.76416 4.67918,-1.30688 6.69483,-2.59395 4.12119,-2.62425 6.43371,-1.13629 8.75543,3.09665 3.69887,6.7566 8.06279,13.05047 11.82384,19.7668 0.65696,1.17642 0.29245,4.44409 -0.55798,5.05718 -4.66076,3.32806 -9.34913,7.03821 -14.52299,8.95856 -34.19342,12.66844 -67.94616,11.94434 -99.12544,-9.51149 -38.59376,-26.55338 -56.77934,-66.17717 -53.9269,-116.90103 2.36655,-42.17776 19.67932,-75.72905 51.87526,-97.56697 38.70173,-26.25155 78.90649,-27.01569 118.9036,-2.19168 1.87145,1.1663 3.44643,2.9256 5.51624,4.7155 z" fill="url(#linear-gradient-4)" id="path17" style="display:inline;fill:url(#linearGradient3);stroke-width:0.26325"></path>
    <path d="m 333.86531,386.08669 c 6.46104,-13.08051 12.39964,-25.49769 18.79721,-37.61319 0.86401,-1.62856 4.04973,-2.40291 6.16438,-2.41288 22.1445,-0.11282 44.28009,0.0126 66.4252,0.0823 5.69617,0.0213 11.39219,0.14866 17.07904,0.0921 16.83586,-0.16918 29.56858,-13.98543 29.6584,-32.11351 0.092,-18.15802 -12.48997,-32.20368 -29.35282,-32.40491 -14.86503,-0.16938 -29.73898,0.3232 -44.59553,-0.0299 -20.62419,-0.49281 -38.64776,-8.04361 -52.64888,-25.74915 -28.53396,-36.08472 -17.43869,-93.96737 21.73096,-114.01552 8.96241,-4.58478 18.28414,-7.1687 27.9576,-7.25946 30.9995,-0.27177 61.99804,-0.0716 92.99751,-0.0428 0.78267,0 1.56583,0.1201 3.3926,0.26149 -2.40307,4.83607 -4.52625,9.19976 -6.72217,13.51278 -2.73504,5.36888 -5.82165,10.53682 -8.2515,16.06681 -3.50909,7.99335 -9.31322,11.13026 -16.87132,11.12004 -21.03831,-0.0126 -42.07659,-0.19034 -63.10577,-0.0511 -23.17947,0.14945 -37.06392,25.05531 -26.58046,47.98926 5.29109,11.57244 14.71175,16.82087 26.05003,17.12242 14.70331,0.39093 29.42449,-0.15853 44.12779,0.22031 24.34902,0.64364 44.73019,10.26557 58.31775,34.00373 18.97773,33.1691 8.67477,79.81081 -21.60457,100.09045 -11.39221,7.63126 -23.50378,10.95909 -36.52416,11.03949 -32.89792,0.21048 -65.79585,0.34379 -98.68456,0.47252 -2.31255,0 -4.62507,-0.22034 -7.73843,-0.39092 z" fill="url(#linear-gradient-2)" id="path1" style="display:inline;fill:url(#linear-gradient-2);stroke-width:0.26325"></path>
    <path d="m 181.6049,156.25583 c -6.37981,8.89806 -12.56167,17.36386 -18.56353,25.99026 -2.0696,2.97624 -3.96823,1.77971 -6.16384,0.55294 -11.63483,-6.50507 -23.93547,-9.98397 -36.98304,-9.91326 -39.583554,0.21089 -72.067513,33.80223 -75.405821,77.92073 -2.582543,34.06369 7.585567,62.10512 32.834848,81.83153 21.011045,16.41864 44.424623,18.9725 68.846043,10.77834 2.2676,-0.7642 4.67911,-1.30714 6.69477,-2.59409 4.12123,-2.62407 6.43378,-1.13607 8.75529,3.09672 3.69834,6.75643 8.06254,13.05056 11.82385,19.76691 0.65684,1.17612 0.2968,4.44381 -0.55792,5.05714 -4.66113,3.32816 -9.34927,7.03796 -14.52329,8.95832 -34.1936,12.66843 -67.946221,11.94456 -99.125356,-9.51123 C 20.643149,341.6367 2.4575532,302.01269 5.3099777,251.289 7.6766031,209.11128 24.989352,175.56 57.185264,153.72212 c 38.701714,-26.25185 78.906186,-27.01599 118.903696,-2.19168 1.8716,1.16622 3.44637,2.92565 5.51594,4.71513 z" fill="url(#linear-gradient-3)" id="path2" style="display:inline;fill:url(#linear-gradient-3);stroke-width:0.26325"></path>
    <path d="m 334.37842,157.0098 c -6.37968,8.89814 -12.56154,17.36386 -18.56362,25.99027 -2.06976,2.97627 -3.96813,1.77973 -6.16423,0.55301 -11.6343,-6.50514 -23.93548,-9.98361 -36.98252,-9.91329 -39.58356,0.21089 -72.06772,33.80225 -75.40605,77.92069 -2.58257,34.06373 7.58554,62.10511 32.8347,81.83179 21.01083,16.41849 44.4249,18.97245 68.84583,10.7781 2.26767,-0.76416 4.67918,-1.30688 6.69483,-2.59395 4.12119,-2.62425 6.43371,-1.13629 8.75543,3.09665 3.69887,6.7566 8.06279,13.05047 11.82384,19.7668 0.65696,1.17642 0.29245,4.44409 -0.55798,5.05718 -4.66076,3.32806 -9.34913,7.03821 -14.52299,8.95856 -34.19342,12.66844 -67.94616,11.94434 -99.12544,-9.51149 -38.59376,-26.55338 -56.77934,-66.17717 -53.9269,-116.90103 2.36655,-42.17776 19.67932,-75.72905 51.87526,-97.56697 38.70173,-26.25155 78.90649,-27.01569 118.9036,-2.19168 1.87145,1.1663 3.44643,2.9256 5.51624,4.7155 z" fill="url(#linear-gradient-4)" id="path3" style="display:inline;fill:url(#linear-gradient-4);stroke-width:0.26325"></path>
  </g>
</svg></svg><style>@media (prefers-color-scheme: light) { :root { filter: none; } }
@media (prefers-color-scheme: dark) { :root { filter: none; } }
</style></svg>